<svg width="656" height="380" viewBox="0 0 656 380" fill="none" xmlns="http://www.w3.org/2000/svg" xmlns:xlink="http://www.w3.org/1999/xlink">
<line x1="0" y1="297" x2="656" y2="297" stroke="#1C3347" stroke-width="1" stroke-miterlimit="3.999327"/>
<path d="M122.693,159.774C82.222,144.779 53.368,273.676 44,340L44,377L655,377L652,159.774L631.39,207.354C618.274,237.632 579.864,214.563 562.064,187.169C544.266,159.774 530.212,159.774 516.16,168.425C502.108,177.076 473.066,210.237 458.078,187.169C443.088,164.1 414.046,110.753 389.688,100.66C365.332,90.568 343.784,159.774 322.238,146.798C300.69,133.822 281.954,71.824 262.28,58.848C242.607,45.872 221.997,77.591 201.387,146.798C180.777,216.005 173.282,178.518 122.693,159.774Z" fill="url(#pf_0_409_330)"/>
<path d="M43.01,339.86C42.933,340.406 43.313,340.912 43.86,340.99C44.407,341.068 44.913,340.686 44.99,340.14L43.01,339.86ZM122.693,159.774L123.041,158.837L123.041,158.837L122.693,159.774ZM201.387,146.798L202.345,147.083L201.387,146.798ZM322.238,146.798L321.722,147.655L321.722,147.655L322.238,146.798ZM458.078,187.169L457.238,187.713L457.238,187.713L458.078,187.169ZM516.16,168.425L516.684,169.277L516.684,169.277L516.16,168.425ZM562.064,187.169L561.226,187.713L561.226,187.713L562.064,187.169ZM631.39,207.354L632.308,207.751L632.308,207.751L631.39,207.354ZM652.918,160.172C653.138,159.665 652.904,159.076 652.398,158.857C651.89,158.637 651.302,158.87 651.082,159.377L652.918,160.172ZM44.99,340.14C49.67,307.012 59.214,258.276 72.628,219.722C79.339,200.43 86.99,183.776 95.431,172.895C99.65,167.456 104.019,163.523 108.505,161.396C112.958,159.285 117.556,158.937 122.346,160.712L123.041,158.837C117.713,156.863 112.556,157.262 107.648,159.589C102.773,161.901 98.175,166.096 93.851,171.669C85.207,182.812 77.471,199.715 70.739,219.064C57.266,257.79 47.699,306.666 43.01,339.86L44.99,340.14ZM122.346,160.712C134.898,165.363 144.784,171.178 152.904,176.235C156.952,178.756 160.598,181.113 163.888,183.019C167.179,184.925 170.193,186.429 173.008,187.229C175.842,188.035 178.526,188.144 181.113,187.198C183.689,186.257 186.044,184.315 188.313,181.253C192.822,175.171 197.195,164.378 202.345,147.083L200.428,146.513C195.274,163.821 190.981,174.295 186.707,180.063C184.584,182.926 182.519,184.555 180.426,185.32C178.343,186.081 176.109,186.032 173.556,185.306C170.984,184.574 168.143,183.172 164.891,181.288C161.638,179.403 158.052,177.085 153.962,174.537C145.804,169.457 135.783,163.558 123.041,158.837L122.346,160.712ZM202.345,147.083C212.645,112.497 222.915,87.391 233.011,72.567C238.064,65.149 242.999,60.417 247.77,58.297C252.462,56.214 257.078,56.615 261.73,59.683L262.832,58.013C257.646,54.593 252.31,54.093 246.958,56.47C241.688,58.811 236.494,63.901 231.358,71.441C221.079,86.535 210.739,111.892 200.428,146.513L202.345,147.083ZM261.73,59.683C266.45,62.797 271.214,68.936 276.068,76.767C280.904,84.569 285.746,93.903 290.67,103.288C295.586,112.653 300.584,122.066 305.706,129.951C310.814,137.811 316.128,144.286 321.722,147.655L322.754,145.941C317.574,142.822 312.466,136.681 307.384,128.861C302.32,121.067 297.364,111.736 292.442,102.358C287.53,93 282.652,83.59 277.768,75.713C272.902,67.864 267.946,61.387 262.832,58.013L261.73,59.683ZM321.722,147.655C324.642,149.413 327.602,149.79 330.55,149.101C333.46,148.421 336.304,146.716 339.08,144.414C344.616,139.821 350.164,132.598 355.7,125.421C361.282,118.187 366.864,110.984 372.548,106.201C378.232,101.417 383.742,99.278 389.306,101.584L390.072,99.736C383.458,96.996 377.138,99.723 371.26,104.671C365.378,109.621 359.66,117.016 354.118,124.2C348.53,131.441 343.13,138.456 337.802,142.874C335.148,145.078 332.582,146.572 330.096,147.153C327.646,147.726 325.22,147.427 322.754,145.941L321.722,147.655ZM389.306,101.584C395.2,104.026 401.466,109.131 407.814,115.876C414.15,122.607 420.5,130.898 426.576,139.62C438.752,157.099 449.692,176.098 457.238,187.713L458.916,186.624C451.474,175.17 440.398,155.961 428.216,138.477C422.114,129.716 415.7,121.337 409.27,114.506C402.856,107.689 396.356,102.341 390.072,99.736L389.306,101.584ZM457.238,187.713C461.154,193.738 466.082,196.189 471.5,196.189C476.822,196.189 482.488,193.824 487.982,190.551C493.494,187.267 498.958,182.991 503.89,179.027C508.86,175.033 513.24,171.397 516.684,169.277L515.636,167.574C512.054,169.779 507.536,173.532 502.638,177.468C497.704,181.434 492.336,185.628 486.958,188.833C481.562,192.048 476.278,194.189 471.5,194.189C466.818,194.189 462.496,192.133 458.916,186.624L457.238,187.713ZM516.684,169.277C523.592,165.024 530.306,163.014 537.408,165.234C544.57,167.473 552.37,174.084 561.226,187.713L562.904,186.624C553.96,172.859 545.834,165.773 538.006,163.325C530.118,160.86 522.782,163.175 515.636,167.574L516.684,169.277ZM561.226,187.713C570.212,201.543 584.414,214.317 598.112,219.816C604.966,222.568 611.794,223.537 617.808,221.786C623.864,220.022 628.932,215.545 632.308,207.751L630.472,206.956C627.29,214.302 622.638,218.296 617.248,219.866C611.814,221.448 605.47,220.615 598.856,217.96C585.62,212.646 571.716,200.188 562.904,186.624L561.226,187.713ZM632.308,207.751L652.918,160.172L651.082,159.377L630.472,206.956L632.308,207.751Z" fill="#0A9BC9"/>
<line x1="251" y1="0" x2="251" y2="380" stroke="#E3E3E3" stroke-width="1" stroke-miterlimit="3.999327"/>
<defs>
<linearGradient id="pf_0_409_330" x1="349.5" y1="56" x2="349.5" y2="377" gradientUnits="userSpaceOnUse">
<stop stop-color="#007FA7"/>
<stop offset="1" stop-color="#000000" stop-opacity="0"/>
</linearGradient>
</defs>
</svg>
