<svg width="58" height="62" viewBox="0 0 58 62" fill="none" xmlns="http://www.w3.org/2000/svg" xmlns:xlink="http://www.w3.org/1999/xlink">
<path d="M38.108,30.793C38.004,26.107 34.281,22.382 29.761,22.437L8.238,22.437L8.238,39.148L22.177,39.148L22.177,53.201C22.058,55.424 22.817,57.602 24.278,59.233C25.739,60.865 27.777,61.811 29.924,61.854C32.116,61.831 34.21,60.907 35.745,59.285C37.28,57.662 38.13,55.474 38.108,53.201L38.108,30.793Z" fill="#436FC8"/>
<path d="M8.44,39.332C13.101,39.332 16.88,35.553 16.88,30.892C16.88,26.23 13.101,22.451 8.44,22.451C3.779,22.451 0,26.23 0,30.892C0,35.553 3.779,39.332 8.44,39.332Z" fill="#1B4599"/>
<path d="M57.98,8.398C57.935,3.746 54.284,0 49.797,0L27.783,0C23.601,0.435 20.417,4.084 20.417,8.44C20.417,12.797 23.601,16.446 27.783,16.881L41.886,16.881L41.886,30.92C41.764,33.984 43.272,36.872 45.814,38.442C48.356,40.011 51.524,40.011 54.066,38.442C56.608,36.872 58.115,33.984 57.994,30.92L57.98,8.398Z" fill="#B5CDFE"/>
</svg>
