<svg width="56" height="56" viewBox="0 0 56 56" fill="none" xmlns="http://www.w3.org/2000/svg" xmlns:xlink="http://www.w3.org/1999/xlink">
<line x1="26.5" y1="35" x2="26.5" y2="42" stroke="#FFFFFF" stroke-width="1.5" stroke-miterlimit="3.999327" stroke-linecap="round" stroke-linejoin="round"/>
<path d="M23.497,6.58L24.434,7.751L24.435,7.75L23.497,6.58ZM7.327,19.53L8.26,20.704L8.264,20.701L7.327,19.53ZM4.737,26.32L6.216,26.073L6.215,26.064L4.737,26.32ZM7.84,44.893L6.36,45.141L6.361,45.143L7.84,44.893ZM48.16,44.893L49.639,45.145L49.639,45.141L48.16,44.893ZM51.263,26.32L52.743,26.567L52.744,26.562L51.263,26.32ZM48.673,19.53L49.614,18.362L49.61,18.358L48.673,19.53ZM32.503,6.603L31.564,7.773L31.567,7.775L32.503,6.603ZM22.559,5.409L6.389,18.359L8.264,20.701L24.434,7.751L22.559,5.409ZM6.393,18.356C5.223,19.286 4.339,20.66 3.799,22.075C3.259,23.49 3.003,25.104 3.259,26.576L6.215,26.064C6.073,25.249 6.203,24.191 6.602,23.145C7.001,22.098 7.61,21.221 8.26,20.704L6.393,18.356ZM3.257,26.567L6.36,45.141L9.319,44.646L6.216,26.073L3.257,26.567ZM6.361,45.143C7.043,49.178 10.841,52.39 14.933,52.39L14.933,49.39C12.306,49.39 9.757,47.235 9.319,44.643L6.361,45.143ZM14.933,52.39L41.067,52.39L41.067,49.39L14.933,49.39L14.933,52.39ZM41.067,52.39C45.137,52.39 48.956,49.153 49.639,45.145L46.681,44.642C46.244,47.213 43.67,49.39 41.067,49.39L41.067,52.39ZM49.639,45.141L52.743,26.567L49.784,26.073L46.68,44.646L49.639,45.141ZM52.744,26.562C52.983,25.095 52.722,23.487 52.184,22.075C51.645,20.664 50.77,19.292 49.614,18.362L47.733,20.698C48.374,21.215 48.98,22.094 49.381,23.145C49.781,24.195 49.917,25.259 49.783,26.078L52.744,26.562ZM49.61,18.358L33.44,5.432L31.567,7.775L47.737,20.702L49.61,18.358ZM33.443,5.434C30.4,2.989 25.583,2.984 22.558,5.41L24.435,7.75C26.357,6.209 29.613,6.205 31.564,7.773L33.443,5.434Z" fill="#FFFFFF"/>
</svg>
