<svg width="56" height="56" viewBox="0 0 56 56" fill="none" xmlns="http://www.w3.org/2000/svg" xmlns:xlink="http://www.w3.org/1999/xlink">
<line x1="26.5" y1="15.027" x2="26.5" y2="22.797" stroke="#323232" stroke-width="1.5" stroke-miterlimit="10" stroke-linecap="round"/>
<path d="M11.037,30.427L9.752,29.652L9.75,29.656L11.037,30.427ZM8.073,35.373L6.787,34.602L6.785,34.606L8.073,35.373ZM10.873,42.957L10.399,44.38L10.4,44.38L10.873,42.957ZM45.243,42.957L45.717,44.38L45.718,44.38L45.243,42.957ZM48.043,35.373L49.331,34.603L49.33,34.602L48.043,35.373ZM45.08,30.427L46.367,29.656L46.364,29.652L45.08,30.427ZM43.61,20.207L45.11,20.207L45.11,20.203L43.61,20.207ZM28.047,3.167C18.632,3.167 11.007,10.792 11.007,20.207L14.007,20.207C14.007,12.448 20.288,6.167 28.047,6.167L28.047,3.167ZM11.007,20.207L11.007,25.107L14.007,25.107L14.007,20.207L11.007,20.207ZM11.007,25.107C11.007,25.724 10.875,26.575 10.632,27.455C10.389,28.336 10.067,29.13 9.752,29.652L12.321,31.202C12.823,30.37 13.236,29.297 13.524,28.253C13.812,27.208 14.007,26.076 14.007,25.107L11.007,25.107ZM9.75,29.656L6.787,34.602L9.36,36.144L12.323,31.197L9.75,29.656ZM6.785,34.606C5.665,36.486 5.445,38.573 6.124,40.411C6.803,42.249 8.327,43.689 10.399,44.38L11.348,41.534C10.06,41.104 9.274,40.28 8.938,39.371C8.602,38.462 8.662,37.317 9.362,36.141L6.785,34.606ZM10.4,44.38C21.861,48.192 34.256,48.192 45.717,44.38L44.77,41.533C33.924,45.141 22.193,45.141 11.347,41.533L10.4,44.38ZM45.718,44.38C49.783,43.025 51.523,38.268 49.331,34.603L46.756,36.143C47.97,38.172 47.004,40.789 44.769,41.534L45.718,44.38ZM49.33,34.602L46.367,29.656L43.793,31.197L46.757,36.144L49.33,34.602ZM46.364,29.652C46.051,29.132 45.729,28.334 45.485,27.448C45.242,26.563 45.11,25.711 45.11,25.107L42.11,25.107C42.11,26.066 42.305,27.197 42.593,28.243C42.88,29.288 43.293,30.368 43.796,31.202L46.364,29.652ZM45.11,25.107L45.11,20.207L42.11,20.207L42.11,25.107L45.11,25.107ZM45.11,20.203C45.085,10.838 37.416,3.167 28.047,3.167L28.047,6.167C35.758,6.167 42.089,12.495 42.11,20.211L45.11,20.203Z" fill="#323232"/>
<path d="M34.27,43.913C34.27,47.355 31.442,50.183 28,50.183L28,53.183C33.098,53.183 37.27,49.012 37.27,43.913L34.27,43.913ZM28,50.183C26.296,50.183 24.712,49.471 23.577,48.336L21.456,50.457C23.121,52.123 25.457,53.183 28,53.183L28,50.183ZM23.577,48.336C22.443,47.201 21.73,45.617 21.73,43.913L18.73,43.913C18.73,46.457 19.791,48.792 21.456,50.457L23.577,48.336Z" fill="#323232"/>
</svg>
