<?xml version="1.0" encoding="UTF-8" standalone="no"?>
<svg
   width="36.000599"
   height="36.000599"
   viewBox="0 0 36.000599 36.000599"
   fill="none"
   version="1.1"
   id="svg4"
   sodipodi:docname="50690fd3804713b960a62ac74a27da7f.svg"
   xmlns:inkscape="http://www.inkscape.org/namespaces/inkscape"
   xmlns:sodipodi="http://sodipodi.sourceforge.net/DTD/sodipodi-0.dtd"
   xmlns="http://www.w3.org/2000/svg"
   xmlns:svg="http://www.w3.org/2000/svg">
  <defs
     id="defs8" />
  <sodipodi:namedview
     id="namedview6"
     pagecolor="#ffffff"
     bordercolor="#666666"
     borderopacity="1.0"
     inkscape:pageshadow="2"
     inkscape:pageopacity="0.0"
     inkscape:pagecheckerboard="0" />
  <path
     d="M 2,2 C 0.895,2 0,2.895 0,4 0,5.105 0.895,6 2,6 Z M 16,6 C 17.105,6 18,5.105 18,4 18,2.895 17.105,2 16,2 Z M 10,2 C 10,0.895 9.105,0 8,0 6.895,0 6,0.895 6,2 Z M 7.211,18.894 c 0.494,0.988 1.695,1.389 2.683,0.895 0.988,-0.494 1.389,-1.695 0.895,-2.683 z M 16,11 C 16,9.895 15.105,9 14,9 12.895,9 12,9.895 12,11 Z m -2.789,9.162 c -1.015,0.436 -1.485,1.612 -1.049,2.627 0.436,1.015 1.612,1.485 2.627,1.049 z m 2.961,13.026 c -0.448,1.009 0.006,2.191 1.016,2.64 1.009,0.448 2.191,-0.006 2.64,-1.016 z M 26,16 27.828,15.188 C 27.507,14.465 26.79,14 26,14 c -0.79,0 -1.507,0.465 -1.828,1.188 z m 6.172,18.812 c 0.449,1.01 1.631,1.464 2.64,1.016 1.01,-0.449 1.464,-1.631 1.016,-2.64 z M 32.2,32 c 1.105,0 2,-0.895 2,-2 0,-1.105 -0.895,-2 -2,-2 z M 19.8,28 c -1.105,0 -2,0.895 -2,2 0,1.105 0.895,2 2,2 z M 2,6 H 16 V 2 H 2 Z M 6,2 c 0,4.823 -0.001,8.383 0.127,10.983 0.124,2.519 0.374,4.491 1.084,5.911 l 3.578,-1.788 c -0.29,-0.58 -0.54,-1.762 -0.666,-4.32 C 10.001,10.309 10,6.869 10,2 Z m 6,9 c 0,1.726 -0.772,3.543 -1.922,4.947 C 8.863,17.43 7.623,18 7,18 v 4 c 2.377,0 4.637,-1.644 6.172,-3.518 C 14.772,16.529 16,13.845 16,11 Z M 7,18 C 6.02,18 5.239,17.633 4.709,17.159 4.132,16.642 4,16.147 4,16 H 0 c 0,1.583 0.868,3.088 2.041,4.138 C 3.261,21.232 4.98,22 7,22 Z M 4,16 C 4,14.308 4.422,13.407 4.914,12.914 5.407,12.422 6.308,12 8,12 V 8 C 5.692,8 3.593,8.578 2.086,10.086 0.578,11.593 0,13.692 0,16 Z m 4,-4 c 1.866,0 4.062,0.273 5.712,0.98 1.62,0.694 2.288,1.573 2.288,2.734 h 4 C 20,12.301 17.668,10.323 15.288,9.303 12.938,8.297 10.134,8 8,8 Z m 8,3.714 c 0,1.23 -0.267,2.122 -0.687,2.783 -0.417,0.654 -1.074,1.224 -2.102,1.665 l 1.578,3.676 C 16.427,23.135 17.77,22.086 18.687,20.645 19.6,19.211 20,17.532 20,15.714 Z m 3.828,19.098 8,-18 -3.656,-1.624 -8,18 z m 4.344,-18 8,18 3.656,-1.624 -8,-18 z M 32.2,28 H 19.8 v 4 h 12.4 z"
     fill="#0a9ef3"
     id="path2" />
</svg>
