<svg width="32" height="30" viewBox="0 0 32 30" fill="none" xmlns="http://www.w3.org/2000/svg" xmlns:xlink="http://www.w3.org/1999/xlink">
<path d="M28.483,7.117L27.054,6.66L27.051,6.672L28.483,7.117ZM23.023,24.71L24.455,25.158L24.456,25.155L23.023,24.71ZM14.483,24.803L15.907,24.331L15.904,24.323L14.483,24.803ZM12.85,19.973L11.427,20.448L11.429,20.454L12.85,19.973ZM10.027,17.15L9.548,18.572L9.575,18.58L10.027,17.15ZM5.173,15.517L5.652,14.095L5.648,14.094L5.173,15.517ZM5.29,6.977L5.723,8.413L5.736,8.409L5.29,6.977ZM22.883,1.493L22.447,0.058L22.437,0.061L22.883,1.493ZM27.051,6.672L21.591,24.265L24.456,25.155L29.916,7.561L27.051,6.672ZM21.592,24.262C20.714,27.066 16.819,27.084 15.907,24.331L13.06,25.275C14.901,30.83 22.719,30.707 24.455,25.158L21.592,24.262ZM15.904,24.323L14.271,19.493L11.429,20.454L13.062,25.284L15.904,24.323ZM14.273,19.499C13.686,17.737 12.29,16.292 10.478,15.72L9.575,18.58C10.424,18.848 11.128,19.55 11.427,20.448L14.273,19.499ZM10.505,15.728L5.652,14.095L4.695,16.938L9.548,18.572L10.505,15.728ZM5.648,14.094C2.897,13.177 2.957,9.247 5.723,8.413L4.857,5.541C-0.73,7.226 -0.81,15.103 4.699,16.94L5.648,14.094ZM5.736,8.409L23.33,2.925L22.437,0.061L4.844,5.545L5.736,8.409ZM23.32,2.928C25.64,2.223 27.775,4.406 27.055,6.66L29.912,7.573C31.385,2.968 27.033,-1.336 22.447,0.058L23.32,2.928Z" fill="#323232"/>
</svg>
