<svg width="50" height="50" viewBox="0 0 50 50" fill="none" xmlns="http://www.w3.org/2000/svg" xmlns:xlink="http://www.w3.org/1999/xlink">
<path d="M17,48.833L31,48.833L31,45.833L17,45.833L17,48.833ZM31,48.833C36.981,48.833 41.558,47.646 44.602,44.602C47.646,41.558 48.833,36.981 48.833,31L45.833,31C45.833,36.685 44.687,40.275 42.481,42.481C40.275,44.687 36.685,45.833 31,45.833L31,48.833ZM48.833,31L48.833,17L45.833,17L45.833,31L48.833,31ZM48.833,17C48.833,11.019 47.646,6.442 44.602,3.398C41.558,0.354 36.981,-0.833 31,-0.833L31,2.167C36.685,2.167 40.275,3.313 42.481,5.519C44.687,7.725 45.833,11.315 45.833,17L48.833,17ZM31,-0.833L17,-0.833L17,2.167L31,2.167L31,-0.833ZM17,-0.833C11.019,-0.833 6.442,0.354 3.398,3.398C0.354,6.442 -0.833,11.019 -0.833,17L2.167,17C2.167,11.315 3.313,7.725 5.519,5.519C7.725,3.313 11.315,2.167 17,2.167L17,-0.833ZM-0.833,17L-0.833,31L2.167,31L2.167,17L-0.833,17ZM-0.833,31C-0.833,36.981 0.354,41.558 3.398,44.602C6.442,47.646 11.019,48.833 17,48.833L17,45.833C11.315,45.833 7.725,44.687 5.519,42.481C3.313,40.275 2.167,36.685 2.167,31L-0.833,31Z" fill="#323232"/>
</svg>
