<svg width="36" height="40" viewBox="0 0 36 40" fill="none" xmlns="http://www.w3.org/2000/svg" xmlns:xlink="http://www.w3.org/1999/xlink">
<path d="M18,22L18,20L18,22ZM32,38C32,39.105 32.895,40 34,40C35.105,40 36,39.105 36,38L32,38ZM0,38C0,39.105 0.895,40 2,40C3.105,40 4,39.105 4,38L0,38ZM26,12C26,16.418 22.418,20 18,20L18,24C24.627,24 30,18.627 30,12L26,12ZM18,20C13.582,20 10,16.418 10,12L6,12C6,18.627 11.373,24 18,24L18,20ZM10,12C10,7.582 13.582,4 18,4L18,0C11.373,0 6,5.373 6,12L10,12ZM18,4C22.418,4 26,7.582 26,12L30,12C30,5.373 24.627,0 18,0L18,4ZM36,38C36,33.226 34.104,28.648 30.728,25.272L27.899,28.101C30.525,30.726 32,34.287 32,38L36,38ZM30.728,25.272C27.352,21.896 22.774,20 18,20L18,24C21.713,24 25.274,25.475 27.899,28.101L30.728,25.272ZM18,20C13.226,20 8.648,21.896 5.272,25.272L8.101,28.101C10.726,25.475 14.287,24 18,24L18,20ZM5.272,25.272C1.896,28.648 0,33.226 0,38L4,38C4,34.287 5.475,30.726 8.101,28.101L5.272,25.272Z" fill="#0A9EF3"/>
</svg>
