<svg width="42" height="42" viewBox="0 0 42 42" fill="none" xmlns="http://www.w3.org/2000/svg" xmlns:xlink="http://www.w3.org/1999/xlink">
<path d="M1.667,31L0.253,29.586C-0.123,29.961 -0.333,30.469 -0.333,31L1.667,31ZM10.833,38.333L10.833,40.333C11.938,40.333 12.833,39.438 12.833,38.333L10.833,38.333ZM10.833,32.833L10.833,30.833C9.729,30.833 8.833,31.729 8.833,32.833L10.833,32.833ZM16.333,32.833L16.333,34.833C17.438,34.833 18.333,33.938 18.333,32.833L16.333,32.833ZM16.333,27.333L16.333,25.333C15.229,25.333 14.333,26.229 14.333,27.333L16.333,27.333ZM20,27.333L20,29.333C20.531,29.333 21.039,29.122 21.414,28.747L20,27.333ZM22.567,24.767L23.225,22.878C22.5,22.625 21.695,22.81 21.153,23.352L22.567,24.767ZM15.233,17.433L16.648,18.847C17.19,18.305 17.374,17.5 17.122,16.775L15.233,17.433ZM-0.333,31L-0.333,36.5L3.667,36.5L3.667,31L-0.333,31ZM-0.333,36.5C-0.333,37.504 0.01,38.497 0.757,39.243C1.503,39.99 2.496,40.333 3.5,40.333L3.5,36.333C3.448,36.333 3.441,36.325 3.468,36.335C3.495,36.345 3.54,36.37 3.585,36.415C3.63,36.46 3.654,36.504 3.665,36.532C3.675,36.559 3.667,36.552 3.667,36.5L-0.333,36.5ZM3.5,40.333L10.833,40.333L10.833,36.333L3.5,36.333L3.5,40.333ZM12.833,38.333L12.833,32.833L8.833,32.833L8.833,38.333L12.833,38.333ZM10.833,34.833L16.333,34.833L16.333,30.833L10.833,30.833L10.833,34.833ZM18.333,32.833L18.333,27.333L14.333,27.333L14.333,32.833L18.333,32.833ZM16.333,29.333L20,29.333L20,25.333L16.333,25.333L16.333,29.333ZM21.414,28.747L23.981,26.181L21.153,23.352L18.586,25.919L21.414,28.747ZM21.909,26.655C24.885,27.692 28.124,27.688 31.097,26.644L29.772,22.87C27.653,23.614 25.345,23.616 23.225,22.878L21.909,26.655ZM31.097,26.644C34.07,25.6 36.601,23.578 38.276,20.909L34.887,18.783C33.694,20.685 31.891,22.126 29.772,22.87L31.097,26.644ZM38.276,20.909C39.95,18.24 40.669,15.081 40.316,11.95L36.341,12.399C36.593,14.631 36.081,16.881 34.887,18.783L38.276,20.909ZM40.316,11.95C39.962,8.819 38.556,5.901 36.327,3.673L33.499,6.501C35.087,8.089 36.089,10.168 36.341,12.399L40.316,11.95ZM36.327,3.673C34.099,1.444 31.181,0.038 28.05,-0.315L27.601,3.659C29.832,3.911 31.911,4.913 33.499,6.501L36.327,3.673ZM28.05,-0.315C24.919,-0.669 21.76,0.05 19.091,1.724L21.217,5.113C23.119,3.92 25.37,3.407 27.601,3.659L28.05,-0.315ZM19.091,1.724C16.422,3.399 14.4,5.93 13.356,8.903L17.13,10.228C17.874,8.11 19.315,6.306 21.217,5.113L19.091,1.724ZM13.356,8.903C12.312,11.876 12.308,15.116 13.345,18.091L17.122,16.775C16.383,14.655 16.386,12.347 17.13,10.228L13.356,8.903ZM13.819,16.019L0.253,29.586L3.081,32.414L16.648,18.847L13.819,16.019ZM27.167,11.75C27.167,11.152 27.652,10.667 28.25,10.667L28.25,14.667C29.861,14.667 31.167,13.361 31.167,11.75L27.167,11.75ZM28.25,10.667C28.848,10.667 29.333,11.152 29.333,11.75L25.333,11.75C25.333,13.361 26.639,14.667 28.25,14.667L28.25,10.667ZM29.333,11.75C29.333,12.348 28.848,12.833 28.25,12.833L28.25,8.833C26.639,8.833 25.333,10.139 25.333,11.75L29.333,11.75ZM28.25,12.833C27.652,12.833 27.167,12.348 27.167,11.75L31.167,11.75C31.167,10.139 29.861,8.833 28.25,8.833L28.25,12.833Z" fill="#0A9EF3"/>
</svg>
