<svg width="28" height="28" viewBox="0 0 28 28" fill="none" xmlns="http://www.w3.org/2000/svg" xmlns:xlink="http://www.w3.org/1999/xlink">
<path d="M26,14L27.5,14C27.5,13.602 27.342,13.221 27.061,12.939L26,14ZM23,14.75L23.131,16.244C23.209,16.237 23.287,16.224 23.364,16.205L23,14.75ZM13.25,5L11.795,4.636C11.776,4.713 11.763,4.791 11.756,4.869L13.25,5ZM14,2L15.061,0.939C14.779,0.658 14.398,0.5 14,0.5L14,2ZM25.636,12.545L22.636,13.295L23.364,16.205L26.364,15.455L25.636,12.545ZM22.869,13.256C21.778,13.351 20.68,13.206 19.651,12.832L18.624,15.651C20.065,16.175 21.603,16.378 23.131,16.244L22.869,13.256ZM19.651,12.832C18.621,12.457 17.687,11.862 16.912,11.088L14.791,13.209C15.875,14.293 17.184,15.127 18.624,15.651L19.651,12.832ZM16.912,11.088C16.138,10.313 15.543,9.379 15.168,8.349L12.349,9.376C12.873,10.816 13.707,12.125 14.791,13.209L16.912,11.088ZM15.168,8.349C14.794,7.32 14.649,6.222 14.744,5.131L11.756,4.869C11.622,6.397 11.825,7.935 12.349,9.376L15.168,8.349ZM14.705,5.364L15.455,2.364L12.545,1.636L11.795,4.636L14.705,5.364ZM12.939,3.061L24.939,15.061L27.061,12.939L15.061,0.939L12.939,3.061ZM24.5,14C24.5,16.077 23.884,18.107 22.73,19.833L25.225,21.5C26.708,19.28 27.5,16.67 27.5,14L24.5,14ZM22.73,19.833C21.577,21.56 19.937,22.906 18.018,23.701L19.166,26.472C21.633,25.451 23.741,23.72 25.225,21.5L22.73,19.833ZM18.018,23.701C16.1,24.495 13.988,24.703 11.952,24.298L11.366,27.241C13.985,27.762 16.699,27.494 19.166,26.472L18.018,23.701ZM11.952,24.298C9.915,23.893 8.044,22.893 6.575,21.425L4.454,23.546C6.342,25.434 8.748,26.72 11.366,27.241L11.952,24.298ZM6.575,21.425C5.107,19.956 4.107,18.085 3.702,16.048L0.759,16.634C1.28,19.252 2.566,21.658 4.454,23.546L6.575,21.425ZM3.702,16.048C3.297,14.012 3.505,11.9 4.299,9.982L1.528,8.834C0.506,11.301 0.239,14.015 0.759,16.634L3.702,16.048ZM4.299,9.982C5.094,8.063 6.44,6.423 8.167,5.27L6.5,2.775C4.28,4.259 2.549,6.367 1.528,8.834L4.299,9.982ZM8.167,5.27C9.893,4.116 11.923,3.5 14,3.5L14,0.5C11.33,0.5 8.72,1.292 6.5,2.775L8.167,5.27Z" fill="#28635B"/>
</svg>
