<svg width="40" height="28" viewBox="0 0 40 28" fill="none" xmlns="http://www.w3.org/2000/svg" xmlns:xlink="http://www.w3.org/1999/xlink">
<path d="M38,14L39.715,15.029C40.095,14.396 40.095,13.604 39.715,12.971L38,14ZM2,14L0.285,12.971C-0.095,13.604 -0.095,14.396 0.285,15.029L2,14ZM14,14C14,15.591 14.632,17.117 15.757,18.243L18.586,15.414C18.211,15.039 18,14.53 18,14L14,14ZM15.757,18.243C16.883,19.368 18.409,20 20,20L20,16C19.47,16 18.961,15.789 18.586,15.414L15.757,18.243ZM20,20C21.591,20 23.117,19.368 24.243,18.243L21.414,15.414C21.039,15.789 20.53,16 20,16L20,20ZM24.243,18.243C25.368,17.117 26,15.591 26,14L22,14C22,14.53 21.789,15.039 21.414,15.414L24.243,18.243ZM26,14C26,12.409 25.368,10.883 24.243,9.757L21.414,12.586C21.789,12.961 22,13.47 22,14L26,14ZM24.243,9.757C23.117,8.632 21.591,8 20,8L20,12C20.53,12 21.039,12.211 21.414,12.586L24.243,9.757ZM20,8C18.409,8 16.883,8.632 15.757,9.757L18.586,12.586C18.961,12.211 19.47,12 20,12L20,8ZM15.757,9.757C14.632,10.883 14,12.409 14,14L18,14C18,13.47 18.211,12.961 18.586,12.586L15.757,9.757ZM36.285,12.971C31.724,20.572 26.289,24 20,24L20,28C28.111,28 34.676,23.428 39.715,15.029L36.285,12.971ZM20,24C13.711,24 8.276,20.572 3.715,12.971L0.285,15.029C5.324,23.428 11.889,28 20,28L20,24ZM3.715,15.029C8.276,7.428 13.711,4 20,4L20,0C11.889,0 5.324,4.572 0.285,12.971L3.715,15.029ZM20,4C26.289,4 31.724,7.428 36.285,15.029L39.715,12.971C34.676,4.572 28.111,0 20,0L20,4Z" fill="#0A9EF3"/>
</svg>
