<svg width="32" height="32" viewBox="0 0 32 32" fill="none" xmlns="http://www.w3.org/2000/svg" xmlns:xlink="http://www.w3.org/1999/xlink">
<path d="M0.586,13.586C-0.195,14.367 -0.195,15.633 0.586,16.414C1.367,17.195 2.633,17.195 3.414,16.414L0.586,13.586ZM16,1L17.414,-0.414C16.633,-1.195 15.367,-1.195 14.586,-0.414L16,1ZM28.586,16.414C29.367,17.195 30.633,17.195 31.414,16.414C32.195,15.633 32.195,14.367 31.414,13.586L28.586,16.414ZM14,29C14,30.105 14.895,31 16,31C17.105,31 18,30.105 18,29L14,29ZM3.414,16.414L17.414,2.414L14.586,-0.414L0.586,13.586L3.414,16.414ZM14.586,2.414L28.586,16.414L31.414,13.586L17.414,-0.414L14.586,2.414ZM18,29L18,1L14,1L14,29L18,29Z" transform="rotate(180 16 15)" fill="#D8D8D8"/>
</svg>
